<svg id="svg" version="1.1" xmlns="http://www.w3.org/2000/svg" xmlns:xlink="http://www.w3.org/1999/xlink" width="400" height="109.0909090909091" viewBox="0, 0, 400,109.0909090909091"><g id="svgg"><path id="path0" d="M209.167 36.906 C 204.371 37.909,201.412 40.884,201.059 45.057 C 200.958 46.254,201.168 48.043,201.517 48.962 C 201.612 49.212,201.666 49.429,201.637 49.445 C 201.607 49.460,201.743 49.648,201.939 49.862 C 202.134 50.075,202.413 50.485,202.558 50.772 C 202.703 51.059,203.030 51.489,203.286 51.727 C 204.974 53.302,204.961 53.293,207.167 54.305 C 208.402 54.872,209.759 55.284,212.500 55.926 C 217.985 57.211,219.352 57.993,219.621 60.000 C 219.921 62.234,216.729 64.833,214.193 64.421 C 214.041 64.396,213.811 64.460,213.681 64.563 C 213.506 64.702,213.429 64.699,213.379 64.551 C 213.342 64.442,213.216 64.389,213.099 64.434 C 212.712 64.582,210.506 64.024,209.659 63.563 C 208.168 62.751,206.667 60.285,206.667 58.645 C 206.667 58.370,206.528 58.333,205.500 58.333 C 204.858 58.333,204.333 58.398,204.333 58.477 C 204.333 58.557,203.452 58.673,202.375 58.736 C 199.855 58.883,199.833 58.891,199.833 59.595 C 199.833 59.909,199.908 60.167,200.000 60.167 C 200.092 60.167,200.167 60.331,200.167 60.531 C 200.167 61.639,201.433 64.918,202.165 65.703 C 202.333 65.884,202.759 66.396,203.110 66.842 C 203.462 67.288,203.806 67.656,203.875 67.660 C 203.943 67.664,204.356 67.920,204.791 68.230 C 207.128 69.892,208.677 70.248,213.583 70.247 C 218.466 70.247,219.596 70.008,222.250 68.416 C 223.544 67.640,225.321 65.609,225.558 64.637 C 225.618 64.391,225.782 64.075,225.923 63.934 C 226.064 63.794,226.185 63.620,226.194 63.548 C 226.202 63.476,226.234 63.342,226.264 63.250 C 227.938 58.128,225.038 52.669,219.750 50.992 C 219.108 50.788,218.508 50.570,218.417 50.508 C 218.147 50.323,217.093 50.036,214.083 49.328 C 212.525 48.961,211.137 48.613,211.000 48.553 C 210.862 48.494,210.713 48.435,210.667 48.423 C 206.912 47.410,206.688 43.978,210.306 42.901 C 214.446 41.669,218.007 43.276,218.742 46.708 L 218.840 47.167 221.878 47.164 C 225.882 47.161,225.733 47.211,225.592 45.934 C 225.093 41.388,222.503 38.349,218.083 37.123 C 216.545 36.696,210.835 36.557,209.167 36.906 M269.389 36.905 C 267.924 37.181,266.009 37.797,265.653 38.105 C 265.508 38.231,265.339 38.284,265.278 38.223 C 265.217 38.161,265.167 38.187,265.167 38.280 C 265.167 38.373,264.867 38.585,264.500 38.750 C 264.133 38.915,263.833 39.114,263.833 39.192 C 263.833 39.270,263.740 39.335,263.625 39.337 C 263.325 39.343,260.959 41.795,260.494 42.583 C 260.278 42.950,260.039 43.293,259.964 43.345 C 259.689 43.536,258.715 45.779,258.413 46.917 C 258.243 47.558,258.037 48.129,257.956 48.184 C 257.874 48.240,257.825 48.390,257.847 48.518 C 257.868 48.645,257.839 48.862,257.781 49.000 C 257.242 50.285,257.417 58.106,258.003 58.917 C 258.069 59.008,258.217 59.496,258.333 60.000 C 258.578 61.073,259.712 63.545,260.167 64.000 C 260.340 64.174,260.595 64.526,260.733 64.783 C 261.381 65.991,264.083 68.116,266.279 69.144 C 270.021 70.897,278.598 70.643,281.463 68.695 C 281.712 68.525,282.341 68.115,282.859 67.785 C 284.531 66.719,286.599 64.372,287.367 62.667 C 287.512 62.346,287.829 61.657,288.072 61.136 C 290.233 56.502,289.298 45.845,286.459 42.750 C 286.344 42.624,285.800 42.007,285.250 41.377 C 284.227 40.207,283.372 39.491,282.335 38.939 C 282.013 38.767,281.616 38.509,281.451 38.365 C 279.968 37.062,273.017 36.221,269.389 36.905 M304.583 36.925 C 303.942 37.048,303.192 37.223,302.917 37.314 C 301.466 37.798,300.888 38.057,300.619 38.347 C 300.455 38.523,300.245 38.667,300.153 38.667 C 299.638 38.667,296.182 41.746,296.170 42.215 C 296.168 42.288,296.009 42.513,295.817 42.715 C 295.427 43.125,294.626 44.688,294.322 45.634 C 294.212 45.973,294.049 46.344,293.958 46.458 C 293.867 46.573,293.858 46.668,293.938 46.669 C 294.018 46.671,293.996 46.727,293.890 46.795 C 292.495 47.683,292.706 58.108,294.185 61.327 C 295.530 64.254,295.554 64.291,297.243 66.126 C 298.051 67.002,299.262 67.978,300.182 68.493 C 300.433 68.635,300.864 68.880,301.137 69.038 C 304.308 70.871,313.151 70.666,315.400 68.707 C 315.592 68.539,315.947 68.303,316.189 68.183 C 318.321 67.122,322.787 59.500,321.277 59.500 C 320.993 59.500,318.412 58.711,317.750 58.422 C 317.136 58.153,315.449 57.667,315.134 57.667 C 314.998 57.667,314.818 57.993,314.696 58.458 C 314.129 60.636,312.526 62.888,310.982 63.676 C 310.214 64.067,308.346 64.568,308.200 64.422 C 308.153 64.375,308.013 64.420,307.890 64.522 C 307.767 64.625,307.667 64.636,307.667 64.548 C 307.667 64.461,307.503 64.401,307.304 64.416 C 305.098 64.578,302.147 62.580,301.188 60.274 C 299.925 57.240,299.699 50.623,300.759 47.750 C 302.734 42.397,309.842 40.640,313.015 44.720 C 313.385 45.195,313.786 45.704,313.906 45.853 C 314.026 46.001,314.255 46.514,314.415 46.994 L 314.704 47.866 315.410 47.760 C 315.799 47.701,317.122 47.392,318.350 47.072 C 319.578 46.752,320.789 46.447,321.040 46.393 C 321.436 46.309,321.483 46.237,321.390 45.856 C 321.205 45.097,320.310 42.834,320.109 42.620 C 320.003 42.507,319.618 41.972,319.254 41.432 C 316.712 37.664,310.583 35.781,304.583 36.925 M367.917 36.834 C 364.247 37.388,361.406 39.356,360.221 42.167 C 360.124 42.396,360.054 42.628,360.064 42.683 C 360.075 42.737,359.999 42.887,359.897 43.016 C 359.177 43.919,359.255 48.545,360.000 49.167 C 360.055 49.212,360.306 49.663,360.558 50.167 C 360.969 50.988,363.330 53.500,363.691 53.500 C 363.759 53.500,364.437 53.789,365.198 54.142 C 365.960 54.495,366.733 54.840,366.917 54.908 C 367.277 55.043,371.379 56.060,372.333 56.251 C 372.654 56.316,373.142 56.461,373.417 56.574 C 373.692 56.688,374.475 56.961,375.158 57.182 C 376.606 57.650,377.151 58.057,377.739 59.110 C 378.142 59.832,378.325 61.000,378.033 61.000 C 377.960 61.000,377.804 61.267,377.685 61.594 C 377.117 63.166,375.292 64.238,372.953 64.372 C 372.521 64.396,372.167 64.473,372.167 64.542 C 372.167 64.610,372.054 64.667,371.917 64.667 C 371.779 64.667,371.666 64.610,371.666 64.542 C 371.665 64.473,371.309 64.397,370.874 64.372 C 369.356 64.288,366.667 63.085,366.667 62.492 C 366.667 62.397,366.590 62.229,366.497 62.118 C 366.404 62.007,366.178 61.735,365.995 61.514 C 365.655 61.101,365.000 59.216,365.000 58.648 C 365.000 58.328,363.203 58.192,362.750 58.478 C 362.658 58.536,361.646 58.658,360.500 58.750 L 358.417 58.917 358.449 59.873 C 358.514 61.810,359.371 64.129,360.649 65.831 C 361.025 66.331,361.333 66.789,361.333 66.847 C 361.333 67.006,363.093 68.289,364.063 68.836 C 367.873 70.987,376.445 70.889,380.210 68.653 C 384.682 65.995,386.487 59.374,383.817 55.418 C 383.551 55.024,383.333 54.638,383.334 54.559 C 383.335 53.833,380.089 51.628,378.083 50.992 C 377.442 50.788,376.823 50.548,376.708 50.457 C 376.594 50.367,376.500 50.335,376.500 50.388 C 376.500 50.440,376.256 50.382,375.958 50.259 C 375.660 50.136,374.217 49.757,372.750 49.418 C 371.283 49.079,369.821 48.684,369.500 48.542 C 369.179 48.399,368.877 48.288,368.830 48.295 C 368.571 48.334,366.728 47.187,366.458 46.819 C 364.989 44.815,366.969 42.835,370.667 42.610 C 374.446 42.379,376.397 43.631,377.076 46.721 L 377.180 47.193 380.576 47.138 C 382.444 47.108,384.020 47.036,384.078 46.978 C 384.222 46.834,383.585 43.722,383.227 42.817 C 381.349 38.072,375.322 35.717,367.917 36.834 M47.000 37.425 C 47.000 37.568,48.144 38.837,49.542 40.246 C 50.940 41.655,52.341 43.075,52.655 43.401 L 53.227 43.995 46.357 50.846 C 40.634 56.553,39.447 57.663,39.244 57.495 C 39.110 57.384,36.531 54.827,33.512 51.813 C 30.494 48.799,27.918 46.333,27.788 46.333 C 27.359 46.333,5.833 67.577,5.833 68.000 C 5.833 68.231,9.988 72.333,10.223 72.333 C 10.346 72.333,14.317 68.466,19.047 63.739 C 26.416 56.374,27.690 55.168,27.948 55.313 C 28.114 55.405,30.725 57.960,33.749 60.991 C 36.773 64.021,39.341 66.500,39.455 66.500 C 39.629 66.500,40.253 65.932,42.755 63.500 C 43.374 62.897,48.624 57.628,49.000 57.230 C 49.229 56.988,49.748 56.481,50.154 56.103 C 50.559 55.726,51.009 55.276,51.154 55.104 C 51.384 54.830,53.983 52.247,54.667 51.613 C 54.804 51.485,55.223 51.051,55.597 50.649 C 55.972 50.246,56.497 49.722,56.764 49.483 C 57.031 49.245,57.352 48.900,57.476 48.718 C 57.689 48.406,57.895 48.579,60.992 51.671 C 63.903 54.577,64.303 54.921,64.468 54.655 C 64.670 54.333,64.765 37.949,64.568 37.437 C 64.413 37.032,47.000 37.021,47.000 37.425 M229.538 39.958 L 229.583 42.750 234.375 42.794 L 239.167 42.838 239.167 56.339 L 239.167 69.840 242.625 69.795 L 246.083 69.750 246.126 56.292 L 246.169 42.833 250.918 42.833 L 255.667 42.833 255.667 40.000 L 255.667 37.167 242.579 37.167 L 229.492 37.167 229.538 39.958 M327.000 53.500 L 327.000 69.833 330.417 69.833 L 333.833 69.833 333.833 64.988 L 333.833 60.144 335.422 58.530 C 336.296 57.643,337.470 56.446,338.031 55.870 L 339.051 54.823 339.471 55.536 C 339.703 55.929,339.940 56.288,339.998 56.333 C 340.092 56.407,341.647 59.176,341.813 59.565 C 341.848 59.647,341.994 59.850,342.137 60.018 C 342.280 60.185,342.720 60.936,343.114 61.688 C 343.508 62.439,343.933 63.173,344.059 63.319 C 344.184 63.464,344.558 64.076,344.890 64.677 C 345.222 65.279,345.982 66.592,346.579 67.594 C 347.176 68.596,347.665 69.510,347.666 69.625 C 347.666 69.787,348.678 69.833,352.167 69.833 C 354.642 69.833,356.667 69.791,356.667 69.739 C 356.667 69.597,356.300 68.928,356.169 68.833 C 356.107 68.787,355.659 68.112,355.174 67.333 C 354.689 66.554,354.058 65.566,353.771 65.138 C 353.484 64.710,353.063 64.043,352.833 63.656 C 352.604 63.269,352.339 62.870,352.243 62.768 C 352.148 62.666,351.675 61.946,351.192 61.167 C 350.709 60.387,350.177 59.563,350.010 59.333 C 349.842 59.104,349.354 58.354,348.924 57.667 C 348.495 56.979,347.697 55.742,347.152 54.917 C 346.606 54.092,345.955 53.086,345.705 52.681 C 345.455 52.276,344.939 51.472,344.560 50.894 L 343.870 49.843 346.477 47.191 C 351.731 41.844,355.917 37.498,355.972 37.334 C 356.008 37.225,354.451 37.167,351.463 37.167 L 346.898 37.167 345.824 38.298 C 345.233 38.921,344.306 39.914,343.764 40.507 C 341.813 42.637,340.608 43.936,339.563 45.033 C 338.978 45.647,338.500 46.184,338.500 46.227 C 338.500 46.269,338.031 46.797,337.458 47.400 C 335.647 49.305,334.334 50.739,334.085 51.083 C 333.873 51.376,333.843 50.550,333.839 44.292 L 333.833 37.167 330.417 37.167 L 327.000 37.167 327.000 53.500 M276.333 42.997 C 279.353 44.005,281.833 47.171,281.833 50.016 C 281.833 50.267,281.918 50.500,282.021 50.535 C 282.151 50.578,282.210 51.444,282.210 53.311 C 282.210 55.103,282.146 56.088,282.021 56.212 C 281.918 56.315,281.833 56.596,281.833 56.836 C 281.833 57.919,280.673 60.725,279.941 61.413 C 279.744 61.598,279.426 61.951,279.235 62.197 C 278.386 63.287,275.865 64.350,274.000 64.405 C 273.771 64.411,273.546 64.460,273.500 64.513 C 273.454 64.566,272.742 64.475,271.917 64.311 C 269.330 63.796,267.651 62.711,266.408 60.750 C 266.234 60.475,266.030 60.206,265.955 60.152 C 265.736 59.995,265.025 57.754,264.819 56.569 C 264.381 54.054,264.792 49.327,265.616 47.417 C 267.289 43.536,272.059 41.569,276.333 42.997 " stroke="none" fill="#5bac6c" fill-rule="evenodd"></path><path id="path1" d="M69.833 53.489 L 69.833 69.833 77.645 69.833 C 86.283 69.833,89.048 69.571,89.833 68.678 C 89.879 68.626,90.429 68.322,91.054 68.002 C 92.895 67.061,95.317 64.203,95.756 62.453 C 95.818 62.204,95.933 62.000,96.011 62.000 C 96.165 62.000,96.738 60.195,96.998 58.893 C 97.560 56.083,97.520 50.762,96.917 47.917 C 96.580 46.330,96.151 45.000,95.977 45.000 C 95.898 45.000,95.833 44.899,95.833 44.775 C 95.833 44.651,95.635 44.182,95.392 43.733 C 95.149 43.284,94.858 42.744,94.745 42.533 C 94.348 41.794,92.409 39.790,91.583 39.265 C 88.453 37.275,88.543 37.289,78.375 37.211 L 69.833 37.145 69.833 53.489 M112.075 37.381 C 111.918 37.561,110.918 40.134,110.312 41.917 C 110.187 42.283,110.035 42.622,109.973 42.668 C 109.911 42.715,109.472 43.834,108.998 45.156 C 108.524 46.478,108.040 47.714,107.922 47.904 C 107.804 48.094,107.349 49.262,106.910 50.500 C 106.471 51.737,106.018 52.900,105.904 53.083 C 105.790 53.267,105.583 53.754,105.443 54.167 C 104.872 55.851,104.159 57.725,104.024 57.899 C 103.945 58.000,103.479 59.208,102.988 60.583 C 102.498 61.958,102.047 63.121,101.986 63.167 C 101.925 63.212,101.525 64.219,101.097 65.403 C 100.668 66.587,100.134 67.958,99.909 68.449 C 99.234 69.925,99.019 69.833,103.146 69.833 L 106.793 69.833 106.967 69.375 C 107.063 69.123,107.307 68.392,107.510 67.750 C 107.712 67.108,107.946 66.497,108.029 66.392 C 108.112 66.286,108.465 65.349,108.813 64.308 L 109.446 62.417 115.788 62.373 C 120.771 62.339,122.147 62.374,122.210 62.540 C 122.254 62.655,122.649 63.762,123.087 65.000 C 123.525 66.237,123.937 67.287,124.004 67.333 C 124.070 67.379,124.298 67.960,124.511 68.625 L 124.899 69.833 128.699 69.833 C 131.204 69.833,132.500 69.775,132.500 69.661 C 132.500 69.566,132.323 69.135,132.107 68.703 C 131.890 68.270,131.355 66.942,130.917 65.750 C 130.480 64.558,130.071 63.546,130.010 63.500 C 129.888 63.409,129.816 63.228,128.913 60.750 C 128.579 59.833,128.214 58.933,128.101 58.750 C 127.989 58.567,127.495 57.329,127.003 56.000 C 126.511 54.671,126.056 53.546,125.991 53.500 C 125.926 53.454,125.757 53.079,125.616 52.667 C 125.171 51.363,124.157 48.774,124.022 48.592 C 123.950 48.495,123.490 47.329,123.000 46.000 C 122.510 44.671,122.058 43.546,121.996 43.500 C 121.934 43.454,121.527 42.442,121.091 41.250 C 120.655 40.058,120.205 38.933,120.091 38.750 C 119.977 38.567,119.792 38.135,119.679 37.792 L 119.474 37.167 115.862 37.173 C 113.247 37.178,112.202 37.235,112.075 37.381 M135.667 53.500 L 135.667 69.833 138.999 69.833 L 142.331 69.833 142.374 59.625 L 142.417 49.417 143.129 50.708 C 143.521 51.419,143.910 52.000,143.993 52.000 C 144.076 52.000,144.197 52.169,144.262 52.375 C 144.327 52.581,144.632 53.145,144.940 53.628 C 145.248 54.111,145.500 54.566,145.500 54.638 C 145.500 54.711,145.644 54.925,145.820 55.114 C 145.996 55.302,146.385 55.898,146.684 56.437 C 146.984 56.976,147.504 57.829,147.840 58.333 C 148.176 58.837,148.769 59.812,149.157 60.499 C 149.545 61.186,149.923 61.786,149.996 61.833 C 150.069 61.879,150.335 62.292,150.587 62.750 C 150.839 63.208,151.455 64.215,151.955 64.987 C 152.455 65.759,152.924 66.549,152.997 66.743 C 153.071 66.936,153.383 67.432,153.690 67.845 C 153.998 68.258,154.393 68.874,154.568 69.214 L 154.886 69.833 158.360 69.833 L 161.833 69.833 161.833 53.500 L 161.833 37.167 158.585 37.167 L 155.336 37.167 155.293 47.528 L 155.250 57.889 154.764 56.986 C 154.497 56.490,154.114 55.884,153.912 55.640 C 153.711 55.396,153.234 54.627,152.852 53.931 C 152.470 53.236,152.085 52.667,151.996 52.667 C 151.906 52.667,151.833 52.587,151.833 52.489 C 151.833 52.289,150.194 49.462,150.003 49.333 C 149.935 49.288,149.746 48.987,149.583 48.667 C 149.420 48.346,148.788 47.296,148.179 46.333 C 147.569 45.371,146.924 44.297,146.744 43.947 C 146.564 43.597,146.302 43.185,146.162 43.030 C 146.022 42.876,145.537 42.112,145.085 41.333 C 144.633 40.554,144.058 39.629,143.807 39.278 C 143.555 38.927,143.190 38.308,142.993 37.903 L 142.637 37.167 139.152 37.167 L 135.667 37.167 135.667 53.500 M168.667 53.500 L 168.667 69.833 172.083 69.833 L 175.500 69.833 175.500 64.995 L 175.500 60.156 177.208 58.435 C 178.148 57.489,179.285 56.326,179.734 55.852 C 180.184 55.378,180.615 55.011,180.692 55.036 C 180.855 55.091,181.911 56.798,182.680 58.250 C 182.971 58.800,183.455 59.625,183.754 60.083 C 184.054 60.542,184.649 61.552,185.076 62.329 C 185.503 63.107,185.909 63.782,185.978 63.829 C 186.047 63.877,186.505 64.665,186.995 65.580 C 187.485 66.495,187.973 67.330,188.078 67.435 C 188.184 67.541,188.525 68.124,188.836 68.730 L 189.402 69.833 193.867 69.833 C 198.482 69.833,198.822 69.780,198.092 69.174 C 197.878 68.997,197.549 68.476,196.464 66.604 C 196.307 66.332,196.119 66.067,196.046 66.013 C 195.860 65.878,195.000 64.534,194.999 64.379 C 194.999 64.308,194.717 63.875,194.372 63.417 C 194.028 62.958,193.415 62.021,193.011 61.333 C 192.606 60.646,192.189 60.008,192.084 59.917 C 191.978 59.825,191.679 59.375,191.418 58.917 C 191.157 58.458,190.631 57.633,190.251 57.083 C 189.870 56.533,189.268 55.596,188.913 55.000 C 188.559 54.404,188.184 53.842,188.081 53.750 C 187.977 53.658,187.571 53.032,187.179 52.357 C 186.786 51.683,186.341 51.002,186.191 50.843 C 185.354 49.964,185.292 50.079,188.214 47.111 C 193.545 41.697,197.578 37.515,197.636 37.343 C 197.676 37.222,196.257 37.167,193.125 37.167 L 188.555 37.167 187.903 37.792 C 187.544 38.135,186.612 39.122,185.833 39.985 C 185.054 40.847,184.229 41.753,184.000 41.997 C 183.596 42.428,182.516 43.602,178.180 48.327 C 177.041 49.568,175.972 50.718,175.805 50.881 C 175.510 51.170,175.500 50.956,175.500 44.173 L 175.500 37.167 172.083 37.167 L 168.667 37.167 168.667 53.500 M84.583 43.192 C 87.122 43.616,88.711 45.063,89.500 47.670 C 89.708 48.356,89.961 49.097,90.064 49.317 C 90.325 49.879,90.318 57.309,90.056 57.850 C 89.949 58.070,89.779 58.607,89.678 59.043 C 88.752 63.049,87.188 63.918,80.570 64.111 L 76.833 64.220 76.833 53.512 L 76.833 42.804 80.208 42.915 C 82.065 42.975,84.033 43.100,84.583 43.192 M115.833 45.903 C 115.833 46.033,115.890 46.164,115.958 46.194 C 116.027 46.225,116.449 47.337,116.896 48.667 C 117.343 49.996,117.799 51.233,117.909 51.417 C 118.101 51.735,119.833 56.522,119.833 56.732 C 119.833 56.788,117.964 56.833,115.678 56.833 L 111.523 56.833 111.671 56.317 C 111.753 56.033,111.890 55.715,111.977 55.609 C 112.064 55.503,112.519 54.292,112.990 52.917 C 113.460 51.542,113.985 50.117,114.157 49.750 C 114.329 49.383,114.717 48.315,115.020 47.375 C 115.517 45.834,115.833 45.261,115.833 45.903 M32.667 50.885 C 32.667 50.914,32.910 51.158,33.208 51.427 L 33.750 51.917 33.260 51.375 C 32.804 50.870,32.667 50.757,32.667 50.885 M34.667 52.885 C 34.667 52.914,34.910 53.158,35.208 53.427 L 35.750 53.917 35.260 53.375 C 34.804 52.870,34.667 52.757,34.667 52.885 M36.667 54.885 C 36.667 54.914,36.910 55.158,37.208 55.427 L 37.750 55.917 37.260 55.375 C 36.804 54.870,36.667 54.757,36.667 54.885 " stroke="none" fill="#040404" fill-rule="evenodd"></path><path id="path2" d="M49.906 47.208 L 49.417 47.750 49.958 47.260 C 50.463 46.804,50.577 46.667,50.448 46.667 C 50.419 46.667,50.175 46.910,49.906 47.208 M43.833 53.250 C 43.428 53.663,43.135 54.000,43.181 54.000 C 43.226 54.000,43.595 53.663,44.000 53.250 C 44.405 52.837,44.699 52.500,44.653 52.500 C 44.607 52.500,44.238 52.837,43.833 53.250 M25.073 57.708 L 24.583 58.250 25.125 57.760 C 25.630 57.304,25.743 57.167,25.615 57.167 C 25.586 57.167,25.342 57.410,25.073 57.708 M35.167 62.552 C 35.167 62.581,35.410 62.825,35.708 63.094 L 36.250 63.583 35.760 63.042 C 35.304 62.537,35.167 62.423,35.167 62.552 " stroke="none" fill="#308070" fill-rule="evenodd"></path><path id="path3" d="M49.906 47.208 L 49.417 47.750 49.958 47.260 C 50.463 46.804,50.577 46.667,50.448 46.667 C 50.419 46.667,50.175 46.910,49.906 47.208 M43.833 53.250 C 43.428 53.663,43.135 54.000,43.181 54.000 C 43.226 54.000,43.595 53.663,44.000 53.250 C 44.405 52.837,44.699 52.500,44.653 52.500 C 44.607 52.500,44.238 52.837,43.833 53.250 M25.073 57.708 L 24.583 58.250 25.125 57.760 C 25.630 57.304,25.743 57.167,25.615 57.167 C 25.586 57.167,25.342 57.410,25.073 57.708 M35.167 62.552 C 35.167 62.581,35.410 62.825,35.708 63.094 L 36.250 63.583 35.760 63.042 C 35.304 62.537,35.167 62.423,35.167 62.552 " stroke="none" fill="#308070" fill-rule="evenodd"></path><path id="path4" d="M49.906 47.208 L 49.417 47.750 49.958 47.260 C 50.463 46.804,50.577 46.667,50.448 46.667 C 50.419 46.667,50.175 46.910,49.906 47.208 M43.833 53.250 C 43.428 53.663,43.135 54.000,43.181 54.000 C 43.226 54.000,43.595 53.663,44.000 53.250 C 44.405 52.837,44.699 52.500,44.653 52.500 C 44.607 52.500,44.238 52.837,43.833 53.250 M25.073 57.708 L 24.583 58.250 25.125 57.760 C 25.630 57.304,25.743 57.167,25.615 57.167 C 25.586 57.167,25.342 57.410,25.073 57.708 M35.167 62.552 C 35.167 62.581,35.410 62.825,35.708 63.094 L 36.250 63.583 35.760 63.042 C 35.304 62.537,35.167 62.423,35.167 62.552 " stroke="none" fill="#308070" fill-rule="evenodd"></path></g></svg>