<?xml version="1.0" encoding="UTF-8" standalone="no"?><!DOCTYPE svg PUBLIC "-//W3C//DTD SVG 1.1//EN" "http://www.w3.org/Graphics/SVG/1.1/DTD/svg11.dtd"><svg width="100%" height="100%" viewBox="0 0 4907 1811" version="1.1" xmlns="http://www.w3.org/2000/svg" xmlns:xlink="http://www.w3.org/1999/xlink" xml:space="preserve" xmlns:serif="http://www.serif.com/" style="fill-rule:evenodd;clip-rule:evenodd;stroke-linejoin:round;stroke-miterlimit:2;"><g id="Light"><path d="M1847.66,479.927l4.527,-4.527l603.834,603.835l737.074,-737.075l-340.067,-340.067l897.247,-2.093l-0.323,899.017l-342.107,-342.107l-951.194,951.194l-0.63,-0.63l-0.63,0.63l-607.731,-607.732l-910.338,910.338l-214.749,-214.75l1120.56,-1120.56l4.527,4.527Zm1885.35,378.171l0.302,-841.103l-839.447,1.958l311.218,311.218c6.621,6.621 6.621,17.357 -0,23.979l-737.075,737.074c-6.621,6.621 -17.357,6.621 -23.978,-0l-594.454,-594.454c-1.275,0.146 -2.563,0.146 -3.836,0l-1099.19,1099.19l190.771,190.771l898.348,-898.348c6.622,-6.622 17.358,-6.622 23.979,-0l596.372,596.372l939.834,-939.835c6.622,-6.621 17.358,-6.621 23.979,0l313.178,313.178Z" style="fill:#58ad6e;"/><g transform="matrix(4.16667,0,0,4.16667,-1829,-905.73)"><g transform="matrix(198.635,0,0,198.635,430.619,497.995)"><path d="M0.524,-0.327c-0,0.049 -0.006,0.094 -0.018,0.135c-0.013,0.04 -0.032,0.074 -0.058,0.103c-0.025,0.028 -0.059,0.05 -0.099,0.066c-0.04,0.015 -0.089,0.023 -0.145,0.023l-0.162,-0l-0,-0.638l0.189,-0c0.049,-0 0.092,0.006 0.128,0.018c0.037,0.012 0.067,0.031 0.092,0.057c0.024,0.025 0.042,0.057 0.055,0.096c0.012,0.039 0.018,0.086 0.018,0.14Zm-0.129,0.008c0,-0.035 -0.003,-0.066 -0.008,-0.093c-0.006,-0.027 -0.015,-0.05 -0.028,-0.068c-0.014,-0.019 -0.031,-0.033 -0.053,-0.043c-0.022,-0.01 -0.05,-0.015 -0.083,-0.015l-0.061,0l0,0.437l0.053,0c0.059,0 0.104,-0.017 0.134,-0.052c0.031,-0.035 0.046,-0.091 0.046,-0.166Z" style="fill:#282c34;fill-rule:nonzero;"/></g><g transform="matrix(198.635,0,0,198.635,539.83,497.995)"><path d="M0.415,-0l-0.035,-0.126l-0.223,0l-0.036,0.126l-0.119,-0l0.189,-0.638l0.168,-0l0.189,0.638l-0.133,-0Zm-0.145,-0.521l-0.084,0.297l0.167,-0l-0.083,-0.297Z" style="fill:#282c34;fill-rule:nonzero;"/></g><g transform="matrix(198.635,0,0,198.635,649.04,497.995)"><path d="M0.361,-0l-0.171,-0.381l-0.035,-0.082l0,0.463l-0.109,-0l-0,-0.638l0.147,-0l0.175,0.383l0.03,0.075l0,-0.458l0.11,-0l-0,0.638l-0.147,-0Z" style="fill:#282c34;fill-rule:nonzero;"/></g><g transform="matrix(198.635,0,0,198.635,758.251,497.995)"><path d="M0.377,-0l-0.192,-0.309l0,0.309l-0.122,-0l-0,-0.638l0.122,-0l0,0.29l0.191,-0.29l0.145,-0l-0.217,0.304l0.228,0.334l-0.155,-0Z" style="fill:#282c34;fill-rule:nonzero;"/></g><g transform="matrix(198.635,0,0,198.635,867.462,497.995)"><path d="M0.498,-0.193c0,0.035 -0.006,0.065 -0.019,0.091c-0.013,0.026 -0.031,0.047 -0.054,0.064c-0.023,0.016 -0.051,0.029 -0.083,0.037c-0.032,0.008 -0.066,0.012 -0.104,0.012c-0.034,0 -0.066,-0.002 -0.097,-0.006c-0.032,-0.004 -0.063,-0.01 -0.093,-0.019l-0,-0.119c0.015,0.005 0.03,0.01 0.047,0.015c0.016,0.004 0.032,0.008 0.049,0.012c0.016,0.003 0.033,0.006 0.049,0.008c0.016,0.002 0.032,0.003 0.047,0.003c0.023,-0 0.042,-0.002 0.058,-0.006c0.016,-0.004 0.029,-0.009 0.039,-0.016c0.01,-0.007 0.018,-0.015 0.022,-0.025c0.005,-0.009 0.007,-0.019 0.007,-0.031c0,-0.015 -0.004,-0.029 -0.013,-0.039c-0.009,-0.011 -0.021,-0.02 -0.036,-0.028c-0.014,-0.008 -0.031,-0.016 -0.05,-0.022c-0.018,-0.007 -0.037,-0.014 -0.057,-0.021c-0.019,-0.008 -0.038,-0.016 -0.057,-0.026c-0.019,-0.009 -0.035,-0.021 -0.05,-0.035c-0.015,-0.014 -0.026,-0.03 -0.035,-0.05c-0.009,-0.019 -0.014,-0.043 -0.014,-0.07c0,-0.025 0.005,-0.049 0.014,-0.071c0.009,-0.023 0.023,-0.042 0.043,-0.059c0.019,-0.017 0.044,-0.03 0.075,-0.04c0.031,-0.01 0.068,-0.015 0.111,-0.015c0.013,0 0.026,0.001 0.04,0.002c0.014,0.001 0.027,0.002 0.041,0.004c0.013,0.002 0.026,0.004 0.039,0.007c0.012,0.002 0.024,0.004 0.034,0.007l0,0.11c-0.01,-0.004 -0.022,-0.008 -0.034,-0.011c-0.012,-0.003 -0.025,-0.006 -0.038,-0.008c-0.014,-0.003 -0.027,-0.005 -0.04,-0.006c-0.013,-0.001 -0.026,-0.002 -0.038,-0.002c-0.021,0 -0.039,0.002 -0.054,0.005c-0.015,0.004 -0.027,0.008 -0.036,0.014c-0.01,0.006 -0.016,0.014 -0.021,0.023c-0.004,0.008 -0.006,0.018 -0.006,0.029c0,0.013 0.005,0.025 0.014,0.034c0.008,0.01 0.02,0.019 0.035,0.026c0.015,0.008 0.032,0.015 0.05,0.022c0.019,0.006 0.038,0.014 0.058,0.021c0.02,0.008 0.039,0.017 0.058,0.026c0.018,0.01 0.035,0.022 0.05,0.036c0.015,0.014 0.027,0.03 0.036,0.05c0.009,0.019 0.013,0.041 0.013,0.067Z" style="fill:#6ba83b;fill-rule:nonzero;"/></g><g transform="matrix(198.635,0,0,198.635,976.672,497.995)"><path d="M0.336,-0.538l0,0.538l-0.123,-0l0,-0.538l-0.174,-0l-0,-0.1l0.472,-0l0,0.1l-0.175,-0Z" style="fill:#6ba83b;fill-rule:nonzero;"/></g><g transform="matrix(198.635,0,0,198.635,1085.88,497.995)"><path d="M0.532,-0.322c-0,0.058 -0.007,0.108 -0.021,0.15c-0.013,0.042 -0.032,0.077 -0.055,0.104c-0.024,0.027 -0.051,0.047 -0.083,0.06c-0.032,0.013 -0.066,0.019 -0.102,0.019c-0.084,0 -0.147,-0.028 -0.189,-0.084c-0.043,-0.055 -0.064,-0.136 -0.064,-0.243c0,-0.058 0.007,-0.108 0.02,-0.15c0.014,-0.042 0.032,-0.076 0.056,-0.103c0.024,-0.027 0.051,-0.047 0.083,-0.06c0.032,-0.013 0.066,-0.02 0.102,-0.02c0.084,0 0.147,0.028 0.189,0.084c0.043,0.055 0.064,0.136 0.064,0.243Zm-0.127,0.006c-0,-0.075 -0.01,-0.132 -0.03,-0.169c-0.021,-0.037 -0.054,-0.056 -0.1,-0.056c-0.023,0 -0.043,0.005 -0.059,0.015c-0.016,0.009 -0.03,0.024 -0.04,0.042c-0.011,0.019 -0.019,0.042 -0.024,0.069c-0.005,0.027 -0.007,0.058 -0.007,0.093c0,0.076 0.01,0.132 0.031,0.169c0.02,0.037 0.053,0.056 0.099,0.056c0.023,-0 0.043,-0.005 0.059,-0.015c0.017,-0.009 0.03,-0.023 0.041,-0.042c0.01,-0.018 0.018,-0.041 0.022,-0.068c0.005,-0.028 0.008,-0.059 0.008,-0.094Z" style="fill:#6ba83b;fill-rule:nonzero;"/></g><g transform="matrix(198.635,0,0,198.635,1195.09,497.995)"><path d="M0.49,-0.025c-0.028,0.011 -0.056,0.02 -0.082,0.025c-0.027,0.006 -0.054,0.009 -0.083,0.009c-0.046,-0 -0.086,-0.007 -0.122,-0.02c-0.035,-0.014 -0.065,-0.034 -0.089,-0.061c-0.024,-0.026 -0.043,-0.06 -0.055,-0.099c-0.013,-0.04 -0.019,-0.086 -0.019,-0.138c0,-0.054 0.007,-0.102 0.021,-0.143c0.013,-0.042 0.033,-0.078 0.058,-0.106c0.026,-0.029 0.056,-0.051 0.093,-0.066c0.036,-0.015 0.077,-0.023 0.122,-0.023c0.015,0 0.028,0 0.041,0.001c0.013,0.001 0.026,0.002 0.038,0.004c0.012,0.001 0.025,0.004 0.038,0.007c0.012,0.003 0.026,0.006 0.039,0.011l0,0.119c-0.027,-0.013 -0.054,-0.022 -0.079,-0.028c-0.025,-0.005 -0.048,-0.008 -0.068,-0.008c-0.03,-0 -0.056,0.005 -0.078,0.016c-0.021,0.011 -0.039,0.027 -0.053,0.046c-0.014,0.02 -0.024,0.043 -0.03,0.071c-0.007,0.027 -0.01,0.057 -0.01,0.089c-0,0.035 0.003,0.066 0.01,0.093c0.007,0.027 0.017,0.05 0.031,0.069c0.014,0.019 0.032,0.033 0.054,0.043c0.021,0.01 0.047,0.015 0.077,0.015c0.011,-0 0.023,-0.001 0.035,-0.003c0.013,-0.002 0.025,-0.005 0.038,-0.009c0.013,-0.003 0.026,-0.007 0.038,-0.012c0.013,-0.005 0.024,-0.009 0.035,-0.014l0,0.112Z" style="fill:#6ba83b;fill-rule:nonzero;"/></g><g transform="matrix(198.635,0,0,198.635,1304.3,497.995)"><path d="M0.377,-0l-0.192,-0.309l0,0.309l-0.122,-0l-0,-0.638l0.122,-0l0,0.29l0.191,-0.29l0.145,-0l-0.217,0.304l0.228,0.334l-0.155,-0Z" style="fill:#6ba83b;fill-rule:nonzero;"/></g><g transform="matrix(198.635,0,0,198.635,1413.51,497.995)"><path d="M0.498,-0.193c0,0.035 -0.006,0.065 -0.019,0.091c-0.013,0.026 -0.031,0.047 -0.054,0.064c-0.023,0.016 -0.051,0.029 -0.083,0.037c-0.032,0.008 -0.066,0.012 -0.104,0.012c-0.034,0 -0.066,-0.002 -0.097,-0.006c-0.032,-0.004 -0.063,-0.01 -0.093,-0.019l-0,-0.119c0.015,0.005 0.03,0.01 0.047,0.015c0.016,0.004 0.032,0.008 0.049,0.012c0.016,0.003 0.033,0.006 0.049,0.008c0.016,0.002 0.032,0.003 0.047,0.003c0.023,-0 0.042,-0.002 0.058,-0.006c0.016,-0.004 0.029,-0.009 0.039,-0.016c0.01,-0.007 0.018,-0.015 0.022,-0.025c0.005,-0.009 0.007,-0.019 0.007,-0.031c0,-0.015 -0.004,-0.029 -0.013,-0.039c-0.009,-0.011 -0.021,-0.02 -0.036,-0.028c-0.014,-0.008 -0.031,-0.016 -0.05,-0.022c-0.018,-0.007 -0.037,-0.014 -0.057,-0.021c-0.019,-0.008 -0.038,-0.016 -0.057,-0.026c-0.019,-0.009 -0.035,-0.021 -0.05,-0.035c-0.015,-0.014 -0.026,-0.03 -0.035,-0.05c-0.009,-0.019 -0.014,-0.043 -0.014,-0.07c0,-0.025 0.005,-0.049 0.014,-0.071c0.009,-0.023 0.023,-0.042 0.043,-0.059c0.019,-0.017 0.044,-0.03 0.075,-0.04c0.031,-0.01 0.068,-0.015 0.111,-0.015c0.013,0 0.026,0.001 0.04,0.002c0.014,0.001 0.027,0.002 0.041,0.004c0.013,0.002 0.026,0.004 0.039,0.007c0.012,0.002 0.024,0.004 0.034,0.007l0,0.11c-0.01,-0.004 -0.022,-0.008 -0.034,-0.011c-0.012,-0.003 -0.025,-0.006 -0.038,-0.008c-0.014,-0.003 -0.027,-0.005 -0.04,-0.006c-0.013,-0.001 -0.026,-0.002 -0.038,-0.002c-0.021,0 -0.039,0.002 -0.054,0.005c-0.015,0.004 -0.027,0.008 -0.036,0.014c-0.01,0.006 -0.016,0.014 -0.021,0.023c-0.004,0.008 -0.006,0.018 -0.006,0.029c0,0.013 0.005,0.025 0.014,0.034c0.008,0.01 0.02,0.019 0.035,0.026c0.015,0.008 0.032,0.015 0.05,0.022c0.019,0.006 0.038,0.014 0.058,0.021c0.02,0.008 0.039,0.017 0.058,0.026c0.018,0.01 0.035,0.022 0.05,0.036c0.015,0.014 0.027,0.03 0.036,0.05c0.009,0.019 0.013,0.041 0.013,0.067Z" style="fill:#6ba83b;fill-rule:nonzero;"/></g></g><path d="M4493.25,1129.08c2.975,-0 5.738,0.549 8.288,1.647c2.551,1.098 4.764,2.585 6.642,4.463c1.877,1.877 3.347,4.091 4.409,6.641c1.063,2.55 1.594,5.277 1.594,8.182c0,2.834 -0.531,5.508 -1.594,8.023c-1.062,2.514 -2.532,4.71 -4.409,6.588c-1.878,1.877 -4.091,3.365 -6.642,4.463c-2.55,1.098 -5.313,1.647 -8.288,1.647c-2.834,-0 -5.49,-0.549 -7.969,-1.647c-2.48,-1.098 -4.641,-2.586 -6.482,-4.463c-1.842,-1.878 -3.294,-4.074 -4.357,-6.588c-1.063,-2.515 -1.594,-5.189 -1.594,-8.023c0,-2.905 0.531,-5.632 1.594,-8.182c1.063,-2.55 2.515,-4.764 4.357,-6.641c1.841,-1.878 4.002,-3.365 6.482,-4.463c2.479,-1.098 5.135,-1.647 7.969,-1.647Z" style="fill:#6ba83b;fill-rule:nonzero;"/><path d="M4655.83,1164.14c-5.101,2.054 -10.379,3.577 -15.833,4.569c-5.455,0.991 -11.158,1.487 -17.108,1.487c-8.572,0 -16.258,-1.168 -23.059,-3.506c-6.8,-2.338 -12.574,-5.809 -17.32,-10.414c-4.746,-4.604 -8.377,-10.307 -10.892,-17.108c-2.515,-6.8 -3.772,-14.664 -3.772,-23.589c-0,-8.643 1.364,-16.471 4.091,-23.484c2.727,-7.013 6.57,-12.999 11.529,-17.958c4.959,-4.959 10.927,-8.784 17.905,-11.476c6.978,-2.692 14.753,-4.038 23.324,-4.038c7.013,-0 12.911,0.372 17.693,1.116c4.781,0.743 9.085,1.682 12.91,2.816l0,25.183c-4.392,-2.196 -9.156,-3.896 -14.292,-5.1c-5.136,-1.205 -10.006,-1.807 -14.611,-1.807c-4.817,0 -9.138,0.815 -12.963,2.444c-3.826,1.63 -7.049,3.897 -9.67,6.801c-2.621,2.904 -4.622,6.429 -6.004,10.573c-1.381,4.144 -2.072,8.696 -2.072,13.654c0,5.172 0.744,9.812 2.232,13.92c1.487,4.109 3.595,7.598 6.322,10.467c2.727,2.869 6.004,5.065 9.829,6.588c3.826,1.523 8.076,2.285 12.751,2.285c2.267,-0 4.658,-0.159 7.173,-0.478c2.515,-0.319 5.03,-0.78 7.545,-1.382c2.514,-0.602 4.994,-1.292 7.438,-2.072c2.444,-0.779 4.728,-1.629 6.854,-2.55l-0,23.059Z" style="fill:#6ba83b;fill-rule:nonzero;"/><path d="M4785.36,1113.45c0,8.501 -1.204,16.276 -3.613,23.324c-2.408,7.049 -5.88,13.088 -10.413,18.118c-4.534,5.03 -10.095,8.926 -16.683,11.689c-6.588,2.762 -14.097,4.144 -22.527,4.144c-8.005,-0 -15.16,-1.169 -21.465,-3.507c-6.305,-2.338 -11.653,-5.827 -16.045,-10.467c-4.392,-4.64 -7.757,-10.449 -10.095,-17.426c-2.338,-6.978 -3.507,-15.107 -3.507,-24.387c0,-8.572 1.222,-16.364 3.666,-23.377c2.444,-7.014 5.951,-13 10.52,-17.958c4.569,-4.959 10.148,-8.802 16.736,-11.53c6.588,-2.727 14.026,-4.091 22.315,-4.091c8.076,0 15.266,1.187 21.571,3.56c6.304,2.373 11.653,5.898 16.045,10.573c4.392,4.675 7.739,10.467 10.042,17.374c2.302,6.906 3.453,14.894 3.453,23.961Zm-26.99,0.638c-0,-11.193 -2.108,-19.605 -6.323,-25.237c-4.215,-5.632 -10.431,-8.448 -18.648,-8.448c-4.534,0 -8.395,0.886 -11.583,2.657c-3.188,1.771 -5.809,4.197 -7.863,7.279c-2.054,3.081 -3.56,6.676 -4.516,10.785c-0.956,4.109 -1.435,8.501 -1.435,13.176c0,11.264 2.267,19.747 6.801,25.45c4.534,5.702 10.732,8.554 18.596,8.554c4.321,-0 8.075,-0.868 11.263,-2.604c3.188,-1.735 5.774,-4.144 7.757,-7.225c1.984,-3.082 3.471,-6.712 4.463,-10.892c0.992,-4.18 1.488,-8.678 1.488,-13.495Z" style="fill:#6ba83b;fill-rule:nonzero;"/><path d="M4883.97,1168.29l-0,-73.533c-0,-2.691 -0.071,-5.047 -0.213,-7.066c-0.141,-2.019 -0.425,-3.701 -0.85,-5.047c-0.425,-1.346 -1.045,-2.356 -1.859,-3.029c-0.815,-0.673 -1.931,-1.009 -3.348,-1.009c-2.196,-0 -4.356,1.488 -6.482,4.463c-2.125,2.975 -4.533,8.04 -7.225,15.195l-0,70.026l-22.209,-0l0,-73.533c0,-2.691 -0.071,-5.047 -0.212,-7.066c-0.142,-2.019 -0.425,-3.701 -0.85,-5.047c-0.425,-1.346 -1.063,-2.356 -1.913,-3.029c-0.85,-0.673 -1.983,-1.009 -3.4,-1.009c-1.842,-0 -3.897,1.488 -6.163,4.463c-2.267,2.975 -4.782,8.04 -7.545,15.195l0,70.026l-22.421,-0l0,-107.961l19.233,0l0.425,15.727c1.559,-3.188 3.117,-5.916 4.676,-8.182c1.558,-2.267 3.223,-4.127 4.994,-5.579c1.771,-1.452 3.666,-2.497 5.685,-3.135c2.019,-0.637 4.304,-0.956 6.854,-0.956c6.021,-0 10.608,1.576 13.761,4.728c3.152,3.153 4.941,7.527 5.366,13.124c1.7,-3.188 3.382,-5.916 5.047,-8.182c1.665,-2.267 3.4,-4.127 5.207,-5.579c1.806,-1.452 3.754,-2.497 5.844,-3.135c2.09,-0.637 4.41,-0.956 6.96,-0.956c7.863,-0 13.672,2.745 17.427,8.235c3.754,5.49 5.632,13.619 5.632,24.387l-0,77.464l-22.421,-0Z" style="fill:#6ba83b;fill-rule:nonzero;"/></g></svg>