<svg viewBox="0 0 913 546"
    xmlns="http://www.w3.org/2000/svg" fill-rule="evenodd" clip-rule="evenodd" stroke-linejoin="round" stroke-miterlimit="2">
    <path d="M338.986 144.601l1.364-1.364 181.934 181.934 222.079-222.079L641.901.631 912.24 0l-.097 270.872-103.077-103.076-286.592 286.592-.19-.19-.19.19L338.986 271.28 64.704 545.563 0 480.859l337.622-337.622 1.364 1.364zm556.216 85.352l.076-212.958-212.538.496 73.612 73.612c6.622 6.621 6.622 17.357 0 23.978L534.273 337.16c-6.621 6.622-17.357 6.622-23.978 0L338.986 165.852 23.979 480.859l40.725 40.725 262.293-262.293c6.621-6.622 17.357-6.622 23.978 0l171.309 171.308 274.793-274.793c6.622-6.621 17.357-6.621 23.979 0l74.146 74.147z" fill="#58ad6e"/>
</svg>